<?xml version="1.0" encoding="UTF-8"?>
<svg version="1.1" xmlns="http://www.w3.org/2000/svg" width="450" height="100" >
<path fill="#231F20" d="M22.496,32.964c-3.69-1.55-8.471-1.652-12.143-0.008c-4.848,2.171-9.229,7.81-5.857,12.955 c2.095,3.196,6.319,4.891,10.034,4.407c5.636-0.735,4.272-5.441,1.959-9.09c-1.001,0.401-2.001,0.803-3.002,1.204 c1.669,0.146,3.344,0.174,5.019,0.173c1.478-0.001,2.941-0.154,4.406-0.325c0.585-0.102,1.169-0.209,1.751-0.323 c1.371-0.419,1.538-0.438,0.503-0.057c0.731,2.625-2.387,5.737,2.226,6c2.905,0.166,7.281-1.181,7.853-4.429 c0.674-3.829-4.101-5.175-6.909-4.872c-0.564,0.061-3.316,1.399-1.515,1.499c6.005,0.33,12.045-0.818,17.597-3.067 c2.071-0.839,6.489-2.936,6.357-5.768c-0.093-2.019-1.877-3.231-3.843-3.132c-6.413,0.324-9.962,7.65-7.619,13.45 c1.257,3.112,5.032,3.314,6.355,6.659c1.787,4.518,1.512,10.306,0.867,15.014c-0.147,1.08,3.276,0.325,3.598-0.508 c3.585-9.308,7.435-18.544,11.742-27.542c1.272-2.658,2.621-5.281,4.105-7.827c0.61-1.046,1.269-2.069,2.003-3.032 c1.114-1.461,1.572-0.687,0.008-0.995c1.829,0.361-0.258,4.235-0.668,4.898c-2.79,4.517-8.601,6.238-13.536,6.645 c-0.356,0.029-3.639,0.934-2.282,1.478c4.358,1.749,14.642,6.655,18.814,2.24c-1.158,0.166-2.316,0.331-3.475,0.497 c1.996,8.185,14.832-2.054,17.142-4.164c0.915-0.835-1.546-0.648-1.807-0.583c-2.688,0.67-7.945,4.337-3.541,7.032 c2.937,1.797,5.501-2.662,6.161-4.646c-1.207,0.231-2.415,0.462-3.622,0.694c0.721,4.532,0.741,9.351-0.321,13.818 c-1.035,4.355-3.761,7.639-8.623,6.185c-4.438-1.327,0.842-7.194,2.188-8.64c3.191-3.425,7.11-6.216,11.102-8.625 c1.34-0.809,3.948-2.97,4.737-0.697c0.155,0.447,0.128,0.961,0.619,1.172c4.317,1.859,6.792-6.85,8.227-7.971 c-1.074,0.1-2.147,0.199-3.221,0.298c0.46,0.99,0.584,1.771,1.398,2.613c0.965,0.999,1.858,4.487,3.549,4.639 c1.367,0.122,2.919-0.083,4.072-0.918c3.759-2.724,2.898,1.836,5.733,1.801c1.756-0.022,3.521-1.515,4.206-0.009 c0.57,1.254,1.464,1.682,2.843,1.51c3.002-0.376,6.888-2.579,7.811-5.645c-1.171,0.283-2.343,0.565-3.515,0.849 c1.571,1.269,1.704,4.176,4.341,4.081c3.933-0.142,4.926-3.003,5.809-6.488c-1.208,0.231-2.415,0.462-3.622,0.694 c0.388,7.315,0.123,15.55-3.06,22.251c-1.007,2.121-2.863,4.274-5.437,3.415c-1.444-0.482-1.92-2.093-1.695-3.446 c0.999-6.006,10.905-8.272,15.502-9.354c2.142-0.503,1.829-1.783-0.31-1.28c-6.314,1.485-15.202,3.771-18.445,10.128 c-2.052,4.021,2.299,6.186,5.702,5.683c12.11-1.792,11.888-18.84,11.388-28.277c-0.045-0.846-3.422-0.094-3.622,0.694 c-0.36,1.424-0.733,2.725-1.342,4.059c0.226-0.495,1.028,0.556-0.081-0.748c-0.623-0.732-0.944-1.993-1.697-2.601 c-0.665-0.537-3.249-0.038-3.515,0.849c-0.115,0.383-2.702,4.297-3.411,2.748c-0.573-1.252-0.977-1.635-2.334-1.756 c-0.994-0.088-2.083,0.245-2.987,0.627c-0.953,0.403-1.438-1.481-2.493-2.401c-2.048-1.787-5.714,0.325-7.406,1.495 c-0.034,0.023-3.444-5.459-3.738-6.09c-0.407-0.876-2.703-0.106-3.221,0.298c-0.813,0.636-1.244,1.765-1.768,2.627 c-0.927,1.526-1.934,3.031-3.027,4.445c-1.046,1.353,2.825,0.863,2.47-0.573c-0.563-2.276-3.049-2.361-4.991-1.795 c-4.592,1.337-8.751,4.104-12.479,7.042c-3.513,2.77-8.884,6.735-9.584,11.546c-0.512,3.516,4.66,3.742,6.917,3.757 c3.278,0.022,6.533-1.529,8.526-4.098c3.77-4.859,3.363-13.044,2.449-18.791c-0.148-0.931-3.379-0.036-3.622,0.694 c-0.228,0.686-0.509,1.339-0.811,1.995c-0.718,1.022-0.463,1.015,0.766-0.022c-0.719-1.156-0.272-3.187,1.332-3.587 c-0.603-0.194-1.205-0.389-1.807-0.583c-1.71,1.563-8.873,8.581-10.192,3.17c-0.244-1.001-3.063,0.061-3.475,0.497 c-1.1,1.164-10.796-3.068-12.519-3.76c-0.761,0.493-1.521,0.985-2.282,1.478c7.278-0.599,17.069-3.181,19.811-10.964 c1.816-5.155-4.917-3.766-7.022-1.415c-5.287,5.908-8.263,14.725-11.371,21.877c-2.485,5.719-4.855,11.494-7.097,17.313 c1.199-0.169,2.398-0.338,3.598-0.508c0.653-4.771,0.627-9.611-0.49-14.311c-1.049-4.413-4.596-4.326-6.684-7.734 c-1.484-2.421-0.258-5.861,0.507-8.288c1.162-3.688,5.316-1.819,2.766,1.487c-3.269,4.239-11.996,4.948-17.052,4.669 c-0.505,0.5-1.01,0.999-1.515,1.499c1.776-0.192,3.051,1.277,3.721,2.664c1.084,2.245-2.805,4.376-3.176,2.382 c-0.276-1.485,0.919-2.954,0.506-4.435c-0.244-0.875-2.039-0.584-2.607-0.455c-3.436,0.78-6.754,0.985-10.263,0.679 c-0.331-0.029-3.481,0.448-3.002,1.204c0.197,0.311,3.765,6.89,1.676,6.752c-2.666-0.176-5.324-2.22-6.739-4.379 c-1.988-3.033-0.337-6.387,1.739-8.858c2.462-2.931,6.797-2.59,9.984-1.251C20.351,34.726,23.672,33.458,22.496,32.964 L22.496,32.964 M146.44,46.275c0.869-5.045,2.213-10.171,4.454-14.785c0.742-1.529,4.75-7.334,5.818-3.081 c1.075,4.281-1.882,10.371-3.153,14.316c-0.283,0.879,3.273,2.066,3.548,1.216c1.337-4.15,5.098-11.786,2.561-16.116 c-1.3-2.219-5.616-3.316-7.918-2.427c-3.684,1.424-5.255,6.454-6.398,9.827c-1.081,3.188-1.887,6.515-2.459,9.833 C142.718,46.072,146.31,47.03,146.44,46.275L146.44,46.275 M144.986,42.042c3.682-1.474,7.563-1.785,11.389-2.671c1.444-0.334,2.844-0.909,4.252-1.365 c3.267-1.057,2.942,2.01,2.945,4.519c0.001,1.126,2.85,2.209,3.492,1.196c0.477-0.752,0.992-1.478,1.522-2.194 c0.504-0.682,1.063-1.28,1.677-1.858c0.999-0.569,0.51-0.878-1.466-0.926c0.095,1.072,0.03,2.139-0.195,3.203 c-0.153,1.141,2.479,2.498,3.308,1.637c1.126-1.169,2.328-2.253,3.615-3.243c1.041-0.43,0.834-0.813-0.62-1.148 c-0.069,0.745,0.003,1.476,0.216,2.192c0.175,0.868,0.85,1.866,1.541,2.411c1.398,1.104,2.896,1.502,4.645,1.351 c1.297-0.112,9.121-6.551,9.266-5.954c0.852-0.044,1.703-0.088,2.554-0.133c-1.632-0.997-4.002-1.819-5.923-1.351 c-2.735,0.666-5.833,4.727-4.325,7.623c2.463,4.732,11.482,2.233,10.549-3.189c-0.206-1.194-3.708-2.253-3.521-0.95 c0.417,2.929,2.218,4.836,5.135,5.268c5.887,0.871,7.103-10.67,12.752-9.468c-0.369-0.696-0.738-1.392-1.106-2.088 c-2.575,0.346-5.166,1.153-7.075,2.977c-1.938,1.853-1.241,5.068,0.925,6.325c7.67,4.453,11.3-12.479,11.86-16.484 c-1.154-0.481-2.308-0.961-3.462-1.442c-0.604,4.613-2.44,14.6,2.842,17.145c4.061,1.957,6.738-2.463,9.621-4.555 c-1.656-1.561-2.39-1.759-2.201-0.593c0.004,0.358,0.015,0.716,0.031,1.074c0.035,0.969,0.319,1.839,0.748,2.695 c0.836,1.67,2.841,2.414,4.483,2.948c2.417,0.786,1.368-1.456-0.254-1.983c-2.658-0.864-0.436-4.856-3.101-6.087 c-2.87-1.326-5.197,2.128-7.044,3.788c-1.655,1.486-1.343,1.125-1.785-0.955c-0.364-1.713-0.354-3.521-0.348-5.263 c0.009-2.254,0.175-4.534,0.469-6.77c0.177-1.35-3.312-2.512-3.462-1.442c-0.757,5.422-2.166,11.676-6.374,15.543 c-0.179,0.135-0.357,0.27-0.536,0.405c-1.023,0.415-1.001,0.498,0.068,0.249c-0.482-1.726,0.714-2.938,1.965-3.831 c1.238-0.883,3.086-1.346,4.586-1.547c1.894-0.255-0.271-1.91-1.106-2.088c-3.271-0.696-5.266,0.272-7.492,2.784 c-1.54,1.738-2.777,3.693-4.458,5.316c-1.512,1.459-1.925,0.696-2.163-0.966c-1.174-0.317-2.348-0.633-3.521-0.95 c0.351,2.038-3.565,4.989-3.728,4.141c-0.516-2.685,2.495-6.809,5.362-5.058c0.32,0.196,2.836,1.033,2.554-0.133 c-0.479-1.98-2.678-3.084-4.639-3.076c-1.864,0.008-3.322,0.587-4.928,1.492c-1.966,1.109-5.934,6.385-6.122,0.925 c-0.053-1.539-2.815-2.5-4.026-2.053c-2.217,0.82-4.009,2.646-5.623,4.32c1.103,0.546,2.205,1.092,3.308,1.637 c0.3-2.239,0.64-6.857-3.152-6.322c-2.444,0.345-4.094,3.293-5.31,5.212c1.164,0.399,2.328,0.797,3.492,1.196 c-0.004-4.739-1.817-8.783-7.211-8.01c-2.588,0.371-4.94,1.69-7.529,2.105c-3.401,0.545-6.789,1.1-10.007,2.388 C140.799,40.578,143.928,42.465,144.986,42.042L144.986,42.042 M227.038,31.121c0.444,0.556,0.889,1.111,1.333,1.667c0.443,0.555,1.461,1.228,2.149,0.663 c0.698-0.572,0.218-1.684-0.226-2.238c-0.444-0.556-0.889-1.111-1.333-1.667c-0.443-0.555-1.461-1.228-2.149-0.663 C226.114,29.455,226.595,30.567,227.038,31.121L227.038,31.121 M257.214,32.838c-8.844-1.018-16.634,15.168-8.584,20.571c3.611,2.424,8.386-0.71,11.221-2.886 c10.293-7.9,18.146-19.146,25.561-29.622c-0.992-0.73-1.984-1.46-2.977-2.191c-3.411,9.894-6.685,19.874-9.333,30 c1.044,0.638,2.087,1.275,3.131,1.913c1.456-6.971,4.782-11.998,10.874-15.617c5.528-3.284,10.246-8.514,14.305-13.438 c-0.94-0.823-1.882-1.646-2.822-2.469c-3.776,6.708-8.374,14.69-9.041,22.48c-1.147,13.408,16.66,2.769,22.257,1.381 c0.961-0.053,0.596-0.482-1.095-1.289c0.823-0.407,0.94-0.581,0.354-0.522c-1.231-0.017-2.457,0.088-3.679,0.23 c-1.893,0.219-5.302,0.867-6.045,2.983c-1.435,4.082,3.519,5.008,6.408,4.062c2.481-0.813,4.782-2.018,6.551-3.969 c0.675-0.745,0.817-1.641,0.518-1.626c0.915-0.046,1.821-0.173,2.724-0.322c4.814-0.795,6.73-3.79,3.244-7.695 c-0.222,0.672-0.443,1.344-0.665,2.017c1.266,0.263,2.493,0.643,3.709,1.079c3.02,1.084,1.714,2.345-0.092,3.737 c-1.881,1.451-4.515,2.93-5.611,5.132c-3.688,7.407,17.243,4.555,18.704,4.4c1.949-0.207-0.211-3.175-1.66-3.021 c-3.457,0.367-6.911,0.679-10.39,0.727c-1.252,0.017-2.478-0.075-3.708-0.287c-1.043-0.179-0.345,0.96,0.219,0.078 c1.289-2.021,3.818-3.441,5.677-4.875c6.681-5.151-3.267-9.03-7.754-9.962c-1.361-0.283-1.312,1.293-0.665,2.017 c3.004,3.365-3.492,3.886-5.711,3.968c-0.289,0.011-0.689,0.236-0.736,0.554c-0.264,1.782-1.705,2.769-3.141,3.672 c-0.826,0.52-1.744,0.88-2.646,1.238c-0.464,0.138-0.928,0.276-1.393,0.415c-0.984,0.063-1.043,0.153-0.174,0.27 c1.492-2.018,6.142-1.856,8.414-1.793c0.479,0.013,0.796-0.456,0.778-0.889c-0.102-2.492-2.21-3.884-4.551-3.157 c-2.655,0.825-5.221,1.971-7.828,2.936c-2.426,0.898-4.936,1.922-7.476,2.433c-1.334,0.269-1.244,0.321-1.377-0.895 c-0.492-4.485,2.289-9.784,4.049-13.745c1.404-3.16,2.957-6.279,4.653-9.294c0.755-1.341-1.77-3.747-2.822-2.469 c-4.756,5.77-10.129,11.065-16.714,14.674c-4.969,2.723-7.677,9.684-8.773,14.938c-0.301,1.438,2.691,3.594,3.131,1.913 c2.649-10.127,5.922-20.107,9.333-30c0.417-1.208-2.092-3.441-2.977-2.191c-6.026,8.514-12.306,16.931-19.644,24.373 c-3.188,3.232-7.48,7.693-12.242,8.379c-4.445,0.641-0.482-16.264,7.417-15.355C260.362,36.087,258.7,33.009,257.214,32.838 L257.214,32.838 M344.107,40.477c-2.422-0.45-4.863-0.1-6.996,1.136c-2.614,1.515-3.744,6.095-1.548,8.387 c1.743,1.819,5.184,2.212,7.083,0.28c2.795-2.847,1.389-6.001,2.104-9.131c-1.005,0.337-2.01,0.674-3.015,1.011 c-0.97-0.478-0.413,0.007-0.166,0.986c0.289,1.146,0.609,2.28,0.969,3.406c0.612,1.922,1.381,3.759,2.74,5.27 c1.104,1.227,2.98,1.262,4.414,0.742c0.843-0.306,1.496-0.923,2.083-1.575c2.621-2.912,6.272-2.79,6.704,1.297 c0.161,1.522,3.548,1.151,3.69-0.238c0.137-1.344,0.456-2.659,0.821-3.957c1.237-4.4,3.434-6.176,7.628-7.636 c6.518-2.268,10.555-7.306,15.156-12.132c-1.046-0.34-2.091-0.68-3.137-1.02c-2.292,4.552-4.462,9.167-6.533,13.823 c-1.206,2.713-6.713,12.062-3.973,14.917c1.295,1.349,3.658-0.084,4.743-0.914c3.227-2.464,5.628-5.81,9.034-8.12 c6.861-4.655,9.802-10.834,13.451-18.31c-1.177-0.138-2.354-0.275-3.531-0.412c-3.431,8.027-6.807,16.079-10.137,24.149 c-2.465,5.973-4.9,11.958-7.227,17.987c-1.155,2.993-3.104,6.602-3.304,9.864c-0.113,1.847,3.579,1.626,3.674,0.094 c0.185-3.021,1.954-6.326,3.011-9.103c2.271-5.972,4.696-11.887,7.126-17.796c3.45-8.392,6.964-16.758,10.53-25.102 c0.644-1.506-2.943-1.615-3.531-0.412c-2.763,5.66-5.359,12.881-10.942,16.395c-2.06,1.297-3.975,2.729-5.795,4.349 c-1.538,1.369-2.911,2.904-4.38,4.343c-0.376,0.368-0.778,0.727-1.218,1.018c2.022-1.341,1.457,1.271,1.594-0.27 c0.457-5.145,3.653-10.657,5.755-15.262c1.613-3.533,3.294-7.04,5.041-10.509c0.89-1.766-2.258-1.941-3.137-1.02 c-2.164,2.27-4.149,4.671-6.442,6.822c-3.562,3.34-7.8,3.786-11.769,6.114c-3.904,2.291-5.748,7.748-6.184,12.005 c1.23-0.08,2.46-0.159,3.69-0.238c-0.258-2.432-2.179-5.267-4.765-5.694c-3.916-0.647-6.449,1.345-8.983,4.16 c-0.758,0.842-3.011-9.479-4.347-10.138c-0.894-0.44-2.754-0.132-3.015,1.011c-0.463,2.026,0.22,4.19-0.293,6.297 c-1.153,1.907-1.987,1.958-2.503,0.154c-0.215-0.881-0.17-1.763,0.137-2.646c0.426-2.028,2.642-2.282,4.141-2.003 C344.237,43.169,346.527,40.927,344.107,40.477L344.107,40.477 M272.415,83.443c8.957,0.889,17.915,2.61,26.584,5.003c5.387,1.487,10.327,4.055,15.645,5.651 c4.059,1.218,8.365,1.629,12.581,1.802c15.688,0.646,40.222-3.033,46.979-19.694c0.056-0.136-3.357-0.688-3.74,0.256 c-7.104,17.515-34.222,20.687-50.23,17.56c-3.981-0.777-7.531-2.661-11.297-4.077c-4.938-1.858-10.098-3.123-15.241-4.262 c-6.397-1.417-12.921-2.477-19.443-3.125C273.445,82.477,270.059,83.209,272.415,83.443L272.415,83.443 M409.818,25.27c-9.928,16.019-17.486,33.786-25,51c-0.76,1.741,2.202,4.024,3.029,2.128 c7.514-17.214,15.072-34.981,25-51C413.851,25.779,410.925,23.484,409.818,25.27L409.818,25.27 M417.298,16.174c-2.478,1.809-5.549,3.015-8.614,3.161c-7.203,0.342-10.892-9.307-4.318-12.913 c4.354-2.389,11.802-2.586,15.277,1.401c1.073,1.23,1.742,3.165,3.67,3.147c3.262-0.03,2.11-6.026,5.715-5.448 c3.139,0.504,1.644,3.756,2.828,5.699c1.483,2.433,4.397,2.636,6.984,2.527c1.03-0.043,5.027-0.07,5.319-1.804 c0.134-0.798-0.286-1.384-0.955-1.778c-2.03-1.197-5.775-0.56-7.986-0.547c-2.775,0.016-5.55,0.078-8.324,0.16 c-2.43,0.073-2.021,3.176,0.213,3.109c2.234-0.067,4.47-0.111,6.704-0.144c1.572-0.022,3.144-0.028,4.715-0.016 c0.799,0.006,3.371,0.279,2.963,0.038c-0.318-0.593-0.638-1.186-0.956-1.778c0.144-0.85,1.247-0.877-0.091-0.621 c-1.166,0.223-5.06,1.204-5.466-0.82c-0.228-1.131,0.013-2.219-0.368-3.338c-0.84-2.47-4.929-4.427-7.375-3.79 c-1.831,0.478-2.904,1.314-3.991,2.855c-0.39,0.552-0.745,1.642-1.005,2.316c-0.505,1.313,2.287,1.305,1.229-0.244 c-2.169-3.174-5.684-5.201-9.539-5.473c-9.036-0.637-21.647,4.262-15.011,15.037c4.748,7.708,14.794,6.201,21.121,1.582 C421.847,17.171,418.853,15.039,417.298,16.174L417.298,16.174z"/>
</svg>