<svg 
 xmlns="http://www.w3.org/2000/svg"
 xmlns:xlink="http://www.w3.org/1999/xlink"
 width="463px" height="288px">
<path fill-rule="evenodd"  fill="rgb(255, 222, 0)"
 d="M0.635,13.507 C154.568,13.507 308.502,13.507 462.435,13.507 C462.435,106.156 462.434,198.802 461.303,277.878 C351.942,311.167 270.182,250.328 199.227,215.823 C128.618,179.666 67.4,171.671 2.228,276.243 C0.793,198.591 0.580,106.228 0.635,13.507 Z"/>
<path fill-rule="evenodd"  fill="rgb(3, 64, 108)"
 d="M0.635,0.507 C154.568,0.507 308.502,0.507 462.435,0.507 C462.435,93.155 462.435,185.804 462.192,278.618 C242.68,323.595 134.640,35.810 0.562,277.563 C0.634,185.802 0.635,93.155 0.635,0.507 Z"/>
</svg>